<svg width="12" height="12" viewBox="0 0 12 12" fill="none" xmlns="http://www.w3.org/2000/svg">
<path d="M10.676 9.10798C10.676 9.28069 10.6373 9.4582 10.555 9.63091C10.4728 9.80362 10.3664 9.96674 10.2261 10.1203C9.98906 10.3793 9.72783 10.5664 9.43275 10.6864C9.14251 10.8063 8.82807 10.8687 8.48945 10.8687C7.99604 10.8687 7.46875 10.7535 6.91245 10.5185C6.35615 10.2834 5.79984 9.96674 5.24838 9.56854C4.68632 9.1608 4.15593 8.71176 3.6617 8.22522C3.17252 7.73684 2.72135 7.2124 2.31206 6.65642C1.91539 6.1095 1.59612 5.56258 1.36392 5.02045C1.13172 4.47353 1.01562 3.9506 1.01562 3.45165C1.01562 3.12542 1.07367 2.81358 1.18977 2.52572C1.30587 2.23307 1.48969 1.96441 1.74608 1.72453C2.05567 1.42228 2.39429 1.27356 2.75226 1.27356C2.88771 1.27356 3.02316 1.30234 3.14409 1.35992C3.26987 1.41749 3.38113 1.50384 3.4682 1.62858L4.59049 3.19738C4.67756 3.31732 4.74045 3.42766 4.78398 3.53321C4.82752 3.63396 4.85171 3.73471 4.85171 3.82586C4.85171 3.941 4.81784 4.05614 4.75012 4.16649C4.68723 4.27683 4.59532 4.39197 4.47922 4.50712L4.11158 4.88612C4.05837 4.9389 4.03418 5.00126 4.03418 5.07803C4.03418 5.11641 4.03902 5.14999 4.04869 5.18837C4.06321 5.22675 4.07772 5.25553 4.08739 5.28432C4.17447 5.44264 4.32443 5.64893 4.53727 5.89841C4.75496 6.14788 4.98715 6.40215 5.2387 6.65642C5.49992 6.91069 5.75147 7.14577 6.00785 7.36166C6.2594 7.57276 6.46741 7.71668 6.63188 7.80304C6.65607 7.81263 6.68509 7.82703 6.71895 7.84142C6.75765 7.85581 6.79635 7.86061 6.83989 7.86061C6.92213 7.86061 6.98501 7.83182 7.03822 7.77905L7.40587 7.41923C7.5268 7.2993 7.6429 7.20814 7.75416 7.15057C7.86542 7.08341 7.97668 7.04982 8.09762 7.04982C8.18953 7.04982 8.28628 7.06901 8.3927 7.11219C8.49913 7.15537 8.61039 7.21774 8.73132 7.2993L10.3325 8.42672C10.4583 8.51308 10.5454 8.61383 10.5986 8.73377C10.6469 8.8537 10.676 8.97364 10.676 9.10798Z" stroke="#77808B" stroke-width="0.719634" stroke-miterlimit="10"/>
</svg>
