<svg id="Layer_1" data-name="Layer 1" xmlns="http://www.w3.org/2000/svg" viewBox="0 0 24 24"><defs><style>.cls-1{fill:#363e51;}</style></defs><title>Category-1</title><path class="cls-1" d="M18,6.25H16.67a4.73,4.73,0,0,0-9.34,0H6A2.75,2.75,0,0,0,3.25,9v8A4.75,4.75,0,0,0,8,21.75h8A4.75,4.75,0,0,0,20.75,17V9A2.75,2.75,0,0,0,18,6.25Zm-6-2.5a3.25,3.25,0,0,1,3.15,2.5H8.84A3.25,3.25,0,0,1,12,3.75ZM19.25,17A3.26,3.26,0,0,1,16,20.25H8A3.26,3.26,0,0,1,4.75,17V9A1.25,1.25,0,0,1,6,7.75H7.25V9a.75.75,0,0,0,1.5,0V7.75h6.5V9a.75.75,0,0,0,1.5,0V7.75H18A1.25,1.25,0,0,1,19.25,9Z"/></svg>