<?xml version="1.0" encoding="utf-8"?>
<!-- Generator: Adobe Illustrator 18.1.1, SVG Export Plug-In . SVG Version: 6.00 Build 0)  -->
<svg version="1.1" id="Layer_1" xmlns="http://www.w3.org/2000/svg" xmlns:xlink="http://www.w3.org/1999/xlink" x="0px" y="0px"
	 viewBox="-236 274 27 27" enable-background="new -236 274 27 27" xml:space="preserve">
<g>
	<path fill="none" stroke="#2F2F2F" stroke-width="1.5" stroke-linecap="round" stroke-linejoin="round" d="M-217.2,299.7h-10.6
		c-3.9,0-6.9-1.4-6.1-7.1l1-7.7c0.5-2.8,2.3-3.9,3.9-3.9h13c1.6,0,3.3,1.2,3.9,3.9l1,7.7C-210.4,297.7-213.3,299.7-217.2,299.7z"/>
	<path fill="none" stroke="#2F2F2F" stroke-width="1.5" stroke-linecap="round" stroke-linejoin="round" d="M-217,280.8
		c0-3-2.5-5.5-5.5-5.5l0,0c-1.5,0-2.9,0.6-3.9,1.6c-1,1-1.6,2.4-1.6,3.9l0,0"/>
	<path fill="none" stroke="#2F2F2F" stroke-width="1.5" stroke-linecap="round" stroke-linejoin="round" d="M-218.7,286.5
		L-218.7,286.5"/>
	<path fill="none" stroke="#2F2F2F" stroke-width="1.5" stroke-linecap="round" stroke-linejoin="round" d="M-226.2,286.5
		L-226.2,286.5"/>
</g>
</svg>
