<svg id="Layer_1" data-name="Layer 1" xmlns="http://www.w3.org/2000/svg" viewBox="0 0 24 24"><defs><style>.cls-1{fill-rule:evenodd;}</style></defs><title>cart</title><path class="cls-1" d="M2.8635,4.41326A2.79314,2.79314,0,0,1,5.63943,2H18.3606a2.79315,2.79315,0,0,1,2.7759,2.41326c.2577,1.90009.6455,4.994.7748,7.294.1273,2.2648.092,5.3263.0505,7.2348a2.76683,2.76683,0,0,1-2.5613,2.7033C17.4623,21.7927,14.325,22,12,22s-5.46233-.2073-7.40049-.3546a2.76686,2.76686,0,0,1-2.56134-2.7033c-.04151-1.9085-.07677-4.97.05053-7.2348C2.218,9.40728,2.60578,6.31335,2.8635,4.41326Zm2.77593-.8748A1.2547,1.2547,0,0,0,4.388,4.62C4.1304,6.51925,3.7503,9.56,3.62474,11.7937c-.12361,2.1991-.09,5.2076-.04848,7.1149a1.22854,1.22854,0,0,0,1.13979,1.2028c1.9372.1472,5.023.3501,7.284.3501s5.3467-.2029,7.284-.3501a1.22841,1.22841,0,0,0,1.1397-1.2028c.0415-1.9073.0752-4.9158-.0484-7.1149C20.2497,9.56,19.8696,6.51925,19.612,4.62a1.25471,1.25471,0,0,0-1.2514-1.08158Z"/><path class="cls-1" d="M7.89744,6.10256a.76924.76924,0,0,1,.76923.76924,3.33332,3.33332,0,0,0,6.66663,0,.76925.76925,0,0,1,1.5385,0,4.8718,4.8718,0,1,1-9.74359,0A.76923.76923,0,0,1,7.89744,6.10256Z"/></svg>