<?xml version="1.0" encoding="utf-8"?>
<!-- Generator: Adobe Illustrator 18.1.1, SVG Export Plug-In . SVG Version: 6.00 Build 0)  -->
<svg version="1.1" id="Layer_1" xmlns="http://www.w3.org/2000/svg" xmlns:xlink="http://www.w3.org/1999/xlink" x="0px" y="0px"
	 viewBox="-236 274 27 27" enable-background="new -236 274 27 27" xml:space="preserve">
<g>
	<path fill="none" stroke="#2F2F2F" stroke-width="1.3515" d="M-232.6,275.5h5.9c1,0,1.9,0.8,1.9,1.9v5.9c0,1-0.8,1.9-1.9,1.9h-5.9
		c-1,0-1.9-0.8-1.9-1.9v-5.9C-234.5,276.3-233.7,275.5-232.6,275.5z"/>
	<path fill="none" stroke="#2F2F2F" stroke-width="1.3515" d="M-232.6,289.8h5.9c1,0,1.9,0.8,1.9,1.9v5.9c0,1-0.8,1.9-1.9,1.9h-5.9
		c-1,0-1.9-0.8-1.9-1.9v-5.9C-234.5,290.7-233.7,289.8-232.6,289.8z"/>
	<path fill="none" stroke="#2F2F2F" stroke-width="1.3515" d="M-215.3,289.8L-215.3,289.8c2.7,0,4.9,2.2,4.9,4.8l0,0
		c0,2.7-2.2,4.8-4.8,4.8h0c-2.7,0-4.8-2.2-4.8-4.8l0,0C-220.2,292-218,289.8-215.3,289.8z"/>
	<path fill="none" stroke="#2F2F2F" stroke-width="1.3515" d="M-218.3,275.5h5.9c1,0,1.9,0.8,1.9,1.9v5.9c0,1-0.8,1.9-1.9,1.9h-5.9
		c-1,0-1.9-0.8-1.9-1.9v-5.9C-220.2,276.3-219.3,275.5-218.3,275.5z"/>
</g>
</svg>
