<svg width="285" height="52" viewBox="0 0 285 52" fill="none" xmlns="http://www.w3.org/2000/svg">
<path d="M79.1003 27.3749C78.6619 26.9365 78.7245 26.3729 78.8811 25.8093C78.9437 25.6214 78.975 25.4023 78.9124 25.1831C78.6306 24.5255 78.1296 24.0245 77.5034 23.7114C75.6873 22.866 73.6833 23.2104 72.4308 24.8073C71.742 25.7154 71.1784 26.6547 70.7087 27.688C70.0824 29.0031 69.2057 30.0051 67.9845 30.6C66.2311 29.0344 65.1352 26.7487 65.1352 24.6821C65.1352 21.5196 72.149 19.0146 75.562 18.4197C76.4701 18.2631 77.4407 17.9813 77.6599 17.0733C77.8791 16.1339 77.472 15.1633 76.6579 14.6623L76.1569 14.3492C75.7499 14.0987 75.2802 13.9734 74.8105 14.0047C69.1744 14.3805 60 18.5763 60 24.3063C60 29.5981 63.7887 35.015 68.7986 36.2049C69.4875 36.4241 70.2077 36.5493 70.9905 36.6119C73.3076 36.7685 75.3428 36.0796 76.8771 34.2635C78.4427 32.3848 79.0063 30.1304 79.2255 27.7507C79.2255 27.5941 79.1942 27.4689 79.1003 27.3749ZM75.5307 30.1304C75.1863 31.3515 74.2782 32.3222 73.0884 32.7606C72.8379 32.8545 72.5874 32.9484 72.3056 33.0424L72.5561 32.4788C71.147 32.4788 69.8319 31.9778 68.7047 31.195C69.0178 30.9132 69.331 30.6 69.6441 30.2869C70.5208 29.5041 71.3349 28.6274 72.3056 27.8759C72.9005 27.3749 73.7459 27.2184 74.4974 27.4689C75.5307 27.782 75.9065 28.8779 75.5307 30.1304ZM77.8165 25.6528C77.6286 25.5901 77.5034 25.4649 77.4407 25.277C77.4407 25.1205 77.6286 24.9326 77.8165 24.6821C78.0357 24.9639 78.1922 25.1205 78.2235 25.3083C78.2235 25.4336 77.9417 25.6841 77.8165 25.6528Z" fill="#FF6700"/>
<path d="M80.7281 26.2476L79.1625 26.9364C79.1312 26.4668 79.1312 26.091 79.0999 25.5587L80.7281 26.2476Z" fill="#FF6700"/>
<path d="M65.0098 33.0423C65.5108 32.8857 66.0117 32.6665 66.4814 32.416C67.3582 31.8211 68.1723 31.1949 68.9551 30.4747C70.0823 29.4414 71.053 28.1889 72.4933 27.5627C73.0569 27.3122 73.6832 27.2182 74.2781 27.2809C75.2174 27.4061 75.875 28.2515 75.7498 29.1596C75.7498 29.1596 75.7498 29.1596 75.7498 29.1909V29.2222C75.5619 31.0696 74.4973 32.1968 72.8377 32.8857C71.0843 33.5746 69.2682 33.5746 67.4521 33.418C66.638 33.3554 65.8552 33.2614 65.0724 33.1675L65.0098 33.0423Z" fill="#373F52"/>
<path d="M109.977 31.5706H112.451V21.8326L109.977 22.0204V18.2004C110.916 18.1691 111.856 18.0125 112.764 17.6994C113.797 17.355 114.768 16.8853 115.676 16.259H118.776V31.5706H121.249V35.8916H110.008L109.977 31.5706Z" fill="#FF6700"/>
<path d="M104.179 26.3103C104.179 32.4162 99.1688 37.3321 93.0004 37.3321C86.8319 37.3321 81.822 32.4162 81.822 26.3103C81.822 20.2045 86.8319 15.2886 93.0004 15.2886C99.1062 15.2259 104.116 20.1419 104.179 26.2477C104.179 26.279 104.179 26.279 104.179 26.3103ZM98.1042 26.3103C98.1355 23.4923 95.8811 21.1439 93.063 21.1126C90.2449 21.0813 87.8965 23.3357 87.8652 26.1538C87.8339 28.9719 90.0884 31.3203 92.9064 31.3516H93.0004C95.7871 31.3829 98.0729 29.1284 98.1042 26.3417V26.3103Z" fill="#FF6700"/>
<path d="M146.55 16.9259V21.2279H138.773V24.6475H144.509V28.7565H138.773V36.3678H133.368V16.9259H146.55ZM154.121 16.9259V28.205C154.121 29.2529 154.36 30.0618 154.838 30.6317C155.335 31.2017 156.079 31.4866 157.072 31.4866C158.065 31.4866 158.809 31.2017 159.306 30.6317C159.82 30.0434 160.078 29.2345 160.078 28.205V16.9259H165.483V28.205C165.483 29.9883 165.106 31.5142 164.352 32.7828C163.599 34.0329 162.569 34.9797 161.264 35.6232C159.977 36.2483 158.543 36.5608 156.962 36.5608C155.381 36.5608 153.965 36.2483 152.715 35.6232C151.483 34.9797 150.509 34.0329 149.792 32.7828C149.093 31.5326 148.744 30.0067 148.744 28.205V16.9259H154.121ZM178.304 36.3678L174.443 29.1977H173.864V36.3678H168.459V16.9259H176.98C178.543 16.9259 179.867 17.2017 180.951 17.7532C182.036 18.2864 182.854 19.031 183.406 19.987C183.957 20.9246 184.233 21.9817 184.233 23.1583C184.233 24.482 183.865 25.6495 183.13 26.6606C182.413 27.6534 181.356 28.3612 179.959 28.7841L184.343 36.3678H178.304ZM173.864 25.5024H176.539C177.274 25.5024 177.826 25.3277 178.194 24.9784C178.561 24.6291 178.745 24.1235 178.745 23.4617C178.745 22.8366 178.552 22.3494 178.166 22.0001C177.798 21.6324 177.256 21.4485 176.539 21.4485H173.864V25.5024ZM204.699 36.3678H199.294L192.096 25.5024V36.3678H186.691V16.9259H192.096L199.294 27.9292V16.9259H204.699V36.3678ZM213.183 16.9259V36.3678H207.778V16.9259H213.183ZM230.905 16.9259V21.2279H225.72V36.3678H220.315V21.2279H215.186V16.9259H230.905ZM238.199 16.9259V28.205C238.199 29.2529 238.438 30.0618 238.916 30.6317C239.413 31.2017 240.157 31.4866 241.15 31.4866C242.143 31.4866 242.887 31.2017 243.384 30.6317C243.898 30.0434 244.156 29.2345 244.156 28.205V16.9259H249.561V28.205C249.561 29.9883 249.184 31.5142 248.43 32.7828C247.677 34.0329 246.647 34.9797 245.342 35.6232C244.055 36.2483 242.621 36.5608 241.04 36.5608C239.459 36.5608 238.043 36.2483 236.793 35.6232C235.561 34.9797 234.587 34.0329 233.87 32.7828C233.171 31.5326 232.822 30.0067 232.822 28.205V16.9259H238.199ZM262.382 36.3678L258.521 29.1977H257.942V36.3678H252.537V16.9259H261.058C262.621 16.9259 263.945 17.2017 265.029 17.7532C266.114 18.2864 266.932 19.031 267.484 19.987C268.035 20.9246 268.311 21.9817 268.311 23.1583C268.311 24.482 267.943 25.6495 267.208 26.6606C266.491 27.6534 265.434 28.3612 264.037 28.7841L268.421 36.3678H262.382ZM257.942 25.5024H260.617C261.352 25.5024 261.904 25.3277 262.272 24.9784C262.639 24.6291 262.823 24.1235 262.823 23.4617C262.823 22.8366 262.63 22.3494 262.244 22.0001C261.876 21.6324 261.334 21.4485 260.617 21.4485H257.942V25.5024ZM276.174 21.2555V24.4269H282.379V28.5359H276.174V32.0382H283.206V36.3678H270.769V16.9259H283.206V21.2555H276.174Z" fill="#373F52"/>
<path d="M21.3449 27.4455C20.9698 27.0704 21.0234 26.5881 21.1574 26.1058C21.211 25.945 21.2378 25.7574 21.1842 25.5699C20.943 25.0072 20.5143 24.5784 19.9784 24.3105C18.4243 23.587 16.7094 23.8818 15.6376 25.2483C15.0481 26.0254 14.5658 26.8292 14.1639 27.7134C13.628 28.8388 12.8777 29.6963 11.8327 30.2054C10.3322 28.8656 9.39438 26.9096 9.39438 25.1411C9.39438 22.4348 15.3964 20.2912 18.3171 19.7821C19.0942 19.6482 19.9248 19.407 20.1124 18.63C20.2999 17.8261 19.9516 16.9955 19.2549 16.5667L18.8262 16.2988C18.4779 16.0844 18.0759 15.9773 17.674 16.004C12.8509 16.3256 5 19.9161 5 24.8196C5 29.3479 8.24219 33.9835 12.5294 35.0017C13.1189 35.1892 13.7352 35.2964 14.405 35.35C16.3879 35.484 18.1295 34.8945 19.4425 33.3404C20.7822 31.7327 21.2645 29.8035 21.4521 27.767C21.4521 27.6331 21.4253 27.5259 21.3449 27.4455ZM18.2903 29.8035C17.9956 30.8485 17.2185 31.6791 16.2003 32.0542C15.9859 32.1346 15.7716 32.215 15.5304 32.2954L15.7448 31.8131C14.539 31.8131 13.4136 31.3844 12.449 30.7145C12.717 30.4733 12.9849 30.2054 13.2529 29.9374C14.0031 29.2676 14.6998 28.5173 15.5304 27.8742C16.0395 27.4455 16.763 27.3115 17.4061 27.5259C18.2903 27.7938 18.6118 28.7317 18.2903 29.8035ZM20.2463 25.9718C20.0856 25.9182 19.9784 25.811 19.9248 25.6502C19.9248 25.5163 20.0856 25.3555 20.2463 25.1411C20.4339 25.3823 20.5679 25.5163 20.5947 25.677C20.5947 25.7842 20.3535 25.9986 20.2463 25.9718Z" fill="#FF6700"/>
<path d="M22.7378 26.4808L21.3981 27.0703C21.3713 26.6684 21.3713 26.3469 21.3445 25.8914L22.7378 26.4808Z" fill="#FF6700"/>
<path d="M9.28711 32.2952C9.71583 32.1613 10.1445 31.9737 10.5465 31.7593C11.2967 31.2502 11.9934 30.7143 12.6633 30.098C13.6279 29.2138 14.4585 28.142 15.6911 27.6061C16.1734 27.3917 16.7093 27.3114 17.2184 27.365C18.0223 27.4721 18.585 28.1956 18.4778 28.9727C18.4778 28.9727 18.4778 28.9727 18.4778 28.9994V29.0262C18.317 30.6071 17.406 31.5718 15.9859 32.1613C14.4853 32.7507 12.9312 32.7507 11.3771 32.6168C10.6804 32.5632 10.0106 32.4828 9.3407 32.4024L9.28711 32.2952Z" fill="#373F52"/>
<path d="M44.2734 15.7285C45.1018 15.7285 45.7734 16.4001 45.7734 17.2285V18.4928C45.7734 19.3213 45.1018 19.9928 44.2734 19.9928H39.5648C38.7363 19.9928 38.0648 20.6644 38.0648 21.4928V21.8824C38.0648 22.7109 38.7363 23.3824 39.5648 23.3824H42.2505C43.079 23.3824 43.7505 24.054 43.7505 24.8824V25.9554C43.7505 26.7838 43.079 27.4554 42.2505 27.4554H39.5648C38.7363 27.4554 38.0648 28.127 38.0648 28.9554V33.5C38.0648 34.3284 37.3932 35 36.5648 35H34.207C33.3786 35 32.707 34.3284 32.707 33.5V17.2285C32.707 16.4001 33.3786 15.7285 34.207 15.7285H44.2734Z" fill="#373F52"/>
<path d="M22.875 1H19.75H13.5H1V51H26V38.5V32.25V29.125V27.5V26" stroke="#FF6700"/>
<path d="M29.125 51H32.25H38.5H51V1H26V13.5V19.75V22.875V24.5V26" stroke="#FF6700"/>
</svg>
