<svg width="23" height="21" viewBox="0 0 23 21" fill="none" xmlns="http://www.w3.org/2000/svg">
<g clip-path="url(#clip0_232_851)">
<path fill-rule="evenodd" clip-rule="evenodd" d="M12.1602 19.6585C14.339 18.3176 16.3658 16.7394 18.2045 14.9523C19.4972 13.6652 20.4813 12.0962 21.0814 10.3654C22.1615 7.00777 20.9 3.16394 17.3696 2.02639C15.5142 1.42908 13.4878 1.77047 11.9243 2.94377C10.3602 1.7719 8.33451 1.43063 6.47898 2.02639C2.94862 3.16394 1.67805 7.00777 2.75803 10.3654C3.35818 12.0962 4.34228 13.6652 5.63495 14.9523C7.47363 16.7394 9.50049 18.3176 11.6792 19.6585L11.9152 19.8052L12.1602 19.6585Z" stroke="#2B2B2B" stroke-width="1.5" stroke-linecap="round" stroke-linejoin="round"/>
<path d="M8.17009 5.80615C7.10079 6.14773 6.34104 7.10772 6.24609 8.23721" stroke="#253237" stroke-width="1.50562" stroke-linecap="round" stroke-linejoin="round"/>
</g>
<defs>
<clipPath id="clip0_232_851">
<rect width="22.0824" height="20.0749" fill="white" transform="translate(0.878906 0.733887)"/>
</clipPath>
</defs>
</svg>
