<?xml version="1.0" encoding="utf-8"?>
<!-- Generator: Adobe Illustrator 18.1.1, SVG Export Plug-In . SVG Version: 6.00 Build 0)  -->
<svg version="1.1" id="Layer_1" xmlns="http://www.w3.org/2000/svg" xmlns:xlink="http://www.w3.org/1999/xlink" x="0px" y="0px"
	 viewBox="-237 276 24 24" enable-background="new -237 276 24 24" xml:space="preserve">
<path fill="none" stroke="#2F2F2F" stroke-width="1.4" d="M-235.5,287c0-1.3,0.6-2.6,1.7-3.5l6-4.8c1.6-1.3,3.9-1.3,5.5,0l6,4.8
	c1.1,0.8,1.7,2.1,1.7,3.5v7.2c0,2.4-2,4.4-4.4,4.4h-1.6c-0.6,0-1.1-0.5-1.1-1.1v-3.3c0-1.2-1-2.2-2.2-2.2h-2.2c-1.2,0-2.2,1-2.2,2.2
	v3.3c0,0.6-0.5,1.1-1.1,1.1h-1.6c-2.4,0-4.4-2-4.4-4.4V287z"/>
</svg>
