<svg id="Layer_1" data-name="Layer 1" xmlns="http://www.w3.org/2000/svg" viewBox="0 0 24 24"><defs><style>.cls-1{fill-rule:evenodd;}</style></defs><title>login</title><path class="cls-1" d="M5.07692,5.92648a2.80229,2.80229,0,0,1,2.82052-2.7837H12a.75926.75926,0,1,1,0,1.51838H7.89744a1.27376,1.27376,0,0,0-1.282,1.26532V6.93873a.7693.7693,0,0,1-1.53847,0ZM5.84615,16.3021a.76427.76427,0,0,1,.76924.7592v1.0122a1.27376,1.27376,0,0,0,1.28205,1.2653H12a.75927.75927,0,1,1,0,1.5184H7.89744a2.80229,2.80229,0,0,1-2.82052-2.7837V17.0613A.76426.76426,0,0,1,5.84615,16.3021Z"/><path class="cls-1" d="M12.7692,4.78618a1.28,1.28,0,0,1,1.7274-1.18656l5.1282,1.87454a1.2661,1.2661,0,0,1,.8367,1.18655V17.3393a1.266,1.266,0,0,1-.8367,1.1865l-5.1282,1.8746a1.28,1.28,0,0,1-1.7274-1.1866Zm2.2617-2.61042a2.816,2.816,0,0,0-3.8001,2.61042V19.2138a2.81592,2.81592,0,0,0,3.8001,2.6104l5.1282-1.8745A2.78545,2.78545,0,0,0,22,17.3393V6.66071A2.78541,2.78541,0,0,0,20.1591,4.0503Z"/><path class="cls-1" d="M6.32787,9.43867a.77642.77642,0,0,1,1.08785,0L9.467,11.4632a.75214.75214,0,0,1,0,1.0736L7.41572,14.5613a.7764.7764,0,0,1-1.08785,0,.75212.75212,0,0,1,0-1.0736l.73812-.7285H2.76923a.75927.75927,0,1,1,0-1.5184H7.066l-.73812-.7285A.75216.75216,0,0,1,6.32787,9.43867Z"/></svg>