<?xml version="1.0" encoding="utf-8"?>
<!-- Generator: Adobe Illustrator 23.0.5, SVG Export Plug-In . SVG Version: 6.00 Build 0)  -->
<svg version="1.1" id="Layer_1" xmlns="http://www.w3.org/2000/svg" xmlns:xlink="http://www.w3.org/1999/xlink" x="0px" y="0px"
	 viewBox="0 0 24 24" style="enable-background:new 0 0 24 24;" xml:space="preserve">
<title>mycart</title>
<path d="M12.9,16.5H7.7c-1.2,0-2.2-0.9-2.2-2.1c0,0,0,0,0-0.1c-0.1-1.2-0.2-2.3-0.4-3.6L4.8,7.8C4.7,6.6,4.6,5.4,4.4,4.3
	c0-0.2,0-0.4-0.1-0.6c0-0.1-0.1-0.2-0.2-0.2H2.8c-0.4,0-0.7-0.3-0.7-0.7c0,0,0,0,0,0c0-0.4,0.3-0.7,0.7-0.7c0,0,0,0,0,0h2
	c0.4,0,0.7,0.2,0.7,0.6C5.7,3.4,5.8,4.2,5.8,5c0,0.4,0,0.4,0.4,0.4h14.2c0.7,0,1.2,0.4,1.4,1c0.1,0.2,0.1,0.5,0,0.7
	c-0.5,2.5-1.1,5.1-1.6,7.5c-0.2,1-1.1,1.8-2.1,1.7C16.5,16.5,14.8,16.5,12.9,16.5z M13.4,6.9H6.5c-0.3,0-0.3,0-0.3,0.3
	C6.3,8,6.4,8.7,6.4,9.5c0.2,1.6,0.4,3.3,0.5,4.9c0,0.5,0.3,0.8,0.9,0.8h10.4c0.5,0,0.7-0.2,0.8-0.7c0.5-2.4,1-4.8,1.5-7.2
	c0-0.3,0-0.3-0.2-0.3L13.4,6.9z"/>
<path d="M8.4,22c-1.1,0-2-0.9-2-2c0-1.1,0.9-2,2-2c1.1,0,2,0.9,2,2c0,0,0,0,0,0C10.5,21.1,9.6,22,8.4,22z M9.2,19.9
	c0-0.3-0.3-0.6-0.6-0.7c-0.3,0-0.7,0.3-0.7,0.6c0,0.3,0.3,0.6,0.6,0.7C8.7,20.6,9.1,20.3,9.2,19.9z"/>
<path d="M16.7,17.8c1.1,0,2.1,1,2,2.1c0,0,0,0,0,0c0,1.1-0.9,2-2,2c-1.1,0-2.1-1-2-2.1c0,0,0,0,0,0c-0.1-1.1,0.7-2,1.8-2
	C16.5,17.8,16.6,17.8,16.7,17.8z M17.3,19.9c0-0.3-0.3-0.6-0.6-0.7c-0.4,0-0.7,0.3-0.7,0.7c0,0.3,0.3,0.6,0.6,0.7
	C17,20.6,17.3,20.3,17.3,19.9C17.3,19.9,17.3,19.9,17.3,19.9z"/>
</svg>
