<svg id="Layer_1" data-name="Layer 1" xmlns="http://www.w3.org/2000/svg" xmlns:xlink="http://www.w3.org/1999/xlink" viewBox="0 0 80.04472 98.48427"><defs><style>.cls-1{fill:#deb4b4;}.cls-2{mask:url(#mask);}.cls-3{mask:url(#mask-2);}.cls-4{fill:#ffe1e3;}.cls-5{fill:#ec1c25;}</style><mask id="mask" x="-15.97753" y="-0.75781" width="99.99995" height="99.99968" maskUnits="userSpaceOnUse"><g transform="translate(-16.18358 -1.26514)"><g id="mask0_332_1625" data-name="mask0 332 1625"><path class="cls-1" d="M100.206.50732H.20606V100.507H100.206Z"/></g></g></mask><mask id="mask-2" x="-11.97753" y="-0.75781" width="99.99995" height="99.99968" maskUnits="userSpaceOnUse"><g transform="translate(-16.18358 -1.26514)"><g id="mask1_332_1625" data-name="mask1 332 1625"><path class="cls-1" d="M104.206.50732H4.20605V100.507h100Z"/></g></g></mask></defs><title>no-product-found</title><g class="cls-2"><g class="cls-3"><path class="cls-4" d="M17.371,1.67081A1.7012,1.7012,0,0,0,17.6595,4.075l.6539.67317-.6539.67317C15.89,7.24852,17.9672,9.28726,19.8713,7.614l.6924-.61547.6155.61547a1.763,1.763,0,0,0,1.3463.59624c1.5195,0,2.0003-1.51944.8848-2.78885l-.5963-.67317.5963-.67317c1.1155-1.26941.6347-2.78886-.8848-2.78886a1.763,1.763,0,0,0-1.3463.59624l-.6155.61547-.6924-.61547A1.82362,1.82362,0,0,0,17.371,1.67081Z" transform="translate(-16.18358 -1.26514)"/><path class="cls-4" d="M47.6163,6.8141a8.88329,8.88329,0,0,0-1.7042.62305,6.98672,6.98672,0,0,0,.0916,12.49775c.9896.4948,1.2461.5314,3.097.5314,1.9424,0,2.0524-.0183,3.1702-.623a7.19217,7.19217,0,0,0,3.1153-3.2802,5.3066,5.3066,0,0,0,.4947-2.9687c0-1.8142-.0366-1.9974-.5864-3.042A7.19,7.19,0,0,0,47.6163,6.8141Zm2.4006,2.95034a4.6412,4.6412,0,0,1,2.6755,2.25406,4.04629,4.04629,0,0,1-.9896,4.6362,3.82149,3.82149,0,0,1-3.0603.9346,3.93723,3.93723,0,0,1-3.61-3.5734,4.08813,4.08813,0,0,1,2.0524-3.8483A3.38385,3.38385,0,0,1,50.0169,9.76444Z" transform="translate(-16.18358 -1.26514)"/><path class="cls-4" d="M30.1033,8.672A5.67715,5.67715,0,0,0,28.9686,19.1157a4.42217,4.42217,0,0,0,2.6927.6347,5.05922,5.05922,0,0,0,4.2121-1.808,5.3088,5.3088,0,0,0,1.3656-4.2313,4.95115,4.95115,0,0,0-1.6349-3.6159A5.92252,5.92252,0,0,0,30.1033,8.672ZM32.296,11.6723c2.808.7886,2.308,5.0007-.5963,5.0007a2.41389,2.41389,0,0,1-2.3272-1.5002,2.32532,2.32532,0,0,1,1.2694-3.3274C31.5459,11.4223,31.4305,11.4415,32.296,11.6723Z" transform="translate(-16.18358 -1.26514)"/><path class="cls-4" d="M87.3232,60.3329a6.59853,6.59853,0,0,0-3.0004,3.0581,5.44165,5.44165,0,0,0-.4039,2.5196,4.82193,4.82193,0,0,0,.5385,2.7311,6.30186,6.30186,0,0,0,10.0784,1.7118,5.20965,5.20965,0,0,0,1.6925-4.4429,4.58653,4.58653,0,0,0-.5193-2.8081,7.09981,7.09981,0,0,0-3.3658-3.0389,8.83352,8.83352,0,0,0-2.3658-.3077A4.59943,4.59943,0,0,0,87.3232,60.3329Zm4.5584,3.0389a3.14042,3.14042,0,0,1-1.0387,5.6354,3.28653,3.28653,0,0,1-3.9428-3.1351,3.89491,3.89491,0,0,1,1.3656-2.5196A3.15323,3.15323,0,0,1,91.8816,63.3718Z" transform="translate(-16.18358 -1.26514)"/><path class="cls-4" d="M35.5467,86.2987c-.654.654-.5193,1.6157.3654,2.5581l.7501.8078-.7501.8078c-.904.9809-1.0194,1.8657-.3077,2.5196.7308.6924,1.654.577,2.5388-.3462l.7309-.7501.827.7501a2.12488,2.12488,0,0,0,1.5002.7693,1.54163,1.54163,0,0,0,1.5771-1.2886c.0962-.5385.0193-.7309-.7501-1.5387l-.8847-.9424.7501-.7694c.9617-.9424,1.1348-1.7117.577-2.4426a1.23457,1.23457,0,0,0-1.1732-.5193c-.6155,0-.904.1346-1.5964.7693l-.827.7501-.7309-.7501c-.6155-.6347-.8848-.7693-1.481-.7693A1.53751,1.53751,0,0,0,35.5467,86.2987Z" transform="translate(-16.18358 -1.26514)"/><path class="cls-4" d="M21.006,87.4329A6.83007,6.83007,0,0,0,16.64,91.068a7.04559,7.04559,0,0,0,.1154,5.27,6.55079,6.55079,0,0,0,2.8658,2.8657,7.83762,7.83762,0,0,0,4.943.2693,7.03842,7.03842,0,0,0,3.4428-3.0581,4.76441,4.76441,0,0,0,.5193-2.8081,5.11636,5.11636,0,0,0-.4616-2.7696,6.28637,6.28637,0,0,0-5.2507-3.4813A7.25482,7.25482,0,0,0,21.006,87.4329Zm3.0966,3.4812a3.222,3.222,0,0,1,1.0002,4.2506,3.141,3.141,0,0,1-5.3277.1347,3.079,3.079,0,0,1,1.4425-4.6161A3.04182,3.04182,0,0,1,24.1026,90.9141Z" transform="translate(-16.18358 -1.26514)"/></g><path class="cls-5" d="M75.6419,35.6779c0-.0618-.0309-.0927-.0309-.1236v-.0309a4.12606,4.12606,0,0,0-.1855-.371.03107.03107,0,0,0-.0309-.031.61882.61882,0,0,0-.2783-.2782c0-.0309,0-.0309-.0309-.0309a.49772.49772,0,0,0-.2164-.1237c-.0618-.0618-.1546-.0618-.2164-.0927l-.1546-.0619h-.0309L47.0129,25.3826l-.1855-.0618a1.23646,1.23646,0,0,0-.4638-.0928h-.0618a1.23646,1.23646,0,0,0-.4638.0928l-.1855.0618L32.0491,29.9274l-.2165.0618L18.1674,34.534l-.1546.0619c-.0618.0309-.1546.0309-.2164.0927l-.1855.0928a.03073.03073,0,0,0-.0309.0309.55291.55291,0,0,0-.2783.3091,1.09571,1.09571,0,0,0-.2783.4947,1.82974,1.82974,0,0,0-.0618.4328v30.917a1.50268,1.50268,0,0,0,1.0512,1.4531l27.7325,9.2441a.114.114,0,0,0,.0927.0309,1.36635,1.36635,0,0,0,.9894,0l.0927-.0309L74.6526,68.419a1.50275,1.50275,0,0,0,1.0511-1.4531V36.0489A1.54614,1.54614,0,0,0,75.6419,35.6779ZM32.4201,33.0191l4.8539-1.6077,9.0587-3.0298,22.9712,7.6673-9.0586,3.0299-4.854,1.6077-9.0586,3.0298.3092.0928a1.56245,1.56245,0,0,0-.6184,0l.3092-.0928L23.3614,36.0489ZM20.0533,38.1822,44.7868,46.437V74.1077L20.0533,65.8529ZM72.6121,65.8529,47.8785,74.1077V46.437l12.7378-4.2665a.44943.44943,0,0,0,.2164-.0618l11.7794-3.9265Z" transform="translate(-16.18358 -1.26514)"/><path class="cls-5" d="M60.2451,39.0785l-4.8539,1.6077L32.4199,33.0188l4.854-1.6077Z" transform="translate(-16.18358 -1.26514)"/></g></svg>