<svg id="Layer_1" data-name="Layer 1" xmlns="http://www.w3.org/2000/svg" xmlns:xlink="http://www.w3.org/1999/xlink" viewBox="0 0 40.01713 40.01359"><defs><style>.cls-1{fill:none;}.cls-2{clip-path:url(#clip-path);}.cls-3{fill:#fefefe;}.cls-4{fill:#fef3f3;}.cls-5{fill:#e11b22;}</style><clipPath id="clip-path" transform="translate(-0.06937 -0.07144)"><rect class="cls-1" width="40" height="40"/></clipPath></defs><title>profile</title><g class="cls-2"><g class="cls-2"><path class="cls-3" d="M20.07718,40.07812q-9.84135,0-19.68269.0069c-.2589.00035-.32442-.03995-.32423-.31539Q.08377,20.08695.06937.40425C.06914.10649.15008.07173.41592.07188Q20.07908.08258,39.74225.07144c.271-.00016.34446.04227.34424.33473q-.0145,19.66316-.00015,39.32633c.00023.30616-.08345.35276-.36552.35238Q29.899,40.07177,20.07718,40.07812ZM4.537,31.564a.63281.63281,0,0,0,.19909.32706c4.55209,5.60468,10.42521,8.16431,17.61232,7.39854a18.70835,18.70835,0,0,0,13.069-7.393c.07877-.09976.18629-.18611.1922-.32972a1.19135,1.19135,0,0,0,.16687-.15474,19.391,19.391,0,0,0,3.66664-10.44659,18.97552,18.97552,0,0,0-.30121-4.37255A19.22971,19.22971,0,0,0,35.2822,8.06976,19.375,19.375,0,0,0,20.88354.711a18.97484,18.97484,0,0,0-4.67473.38034,18.68666,18.68666,0,0,0-4.6284,1.56678A19.23769,19.23769,0,0,0,8.06647,4.87642,19.58683,19.58683,0,0,0,4.76127,8.215a19.79586,19.79586,0,0,0-2.8754,5.18686A19.45588,19.45588,0,0,0,.71436,19.27752a16.10394,16.10394,0,0,0,.05052,2.29534,22.35846,22.35846,0,0,0,.44765,2.948,18.57287,18.57287,0,0,0,1.98009,5.05534A9.73882,9.73882,0,0,0,4.537,31.564Z" transform="translate(-0.06937 -0.07144)"/><path class="cls-4" d="M4.537,31.564a9.73882,9.73882,0,0,1-1.34435-1.98782,18.57287,18.57287,0,0,1-1.98009-5.05534,22.35846,22.35846,0,0,1-.44765-2.948,16.10394,16.10394,0,0,1-.05052-2.29534,19.45588,19.45588,0,0,1,1.17151-5.87571A19.79586,19.79586,0,0,1,4.76127,8.215a19.58683,19.58683,0,0,1,3.3052-3.33853,19.23769,19.23769,0,0,1,3.51394-2.21833,18.68666,18.68666,0,0,1,4.6284-1.56678A18.97484,18.97484,0,0,1,20.88354.711,19.41567,19.41567,0,0,1,35.2822,8.06976,19.22971,19.22971,0,0,1,39.14187,16.593a18.97552,18.97552,0,0,1,.30121,4.37255,19.391,19.391,0,0,1-3.66664,10.44659,1.19135,1.19135,0,0,1-.16687.15474,1.10633,1.10633,0,0,1-.111-.10559,19.10145,19.10145,0,0,0-16.96277-7.55376A18.72334,18.72334,0,0,0,8.39908,27.73009,20.81237,20.81237,0,0,0,4.537,31.564ZM20.06159,21.3279a7.49979,7.49979,0,1,0-7.48322-7.51685A7.50518,7.50518,0,0,0,20.06159,21.3279Z" transform="translate(-0.06937 -0.07144)"/><path class="cls-5" d="M4.537,31.564a20.81237,20.81237,0,0,1,3.86211-3.83392,18.72334,18.72334,0,0,1,10.13675-3.82256A19.10145,19.10145,0,0,1,35.4986,31.46129a1.10633,1.10633,0,0,0,.111.10559c-.00591.14361-.11343.23-.1922.32972a18.70835,18.70835,0,0,1-13.069,7.393c-7.18711.76577-13.06023-1.79386-17.61232-7.39854A.63281.63281,0,0,1,4.537,31.564Z" transform="translate(-0.06937 -0.07144)"/><path class="cls-5" d="M20.06159,21.3279a7.49979,7.49979,0,1,1,7.51626-7.4836A7.50606,7.50606,0,0,1,20.06159,21.3279Z" transform="translate(-0.06937 -0.07144)"/></g></g></svg>