<svg width="25" height="25" viewBox="0 0 25 25" fill="none" xmlns="http://www.w3.org/2000/svg">
<path d="M12.5805 11.641C12.4805 11.631 12.3605 11.631 12.2505 11.641C9.87047 11.561 7.98047 9.611 7.98047 7.211C7.98047 4.761 9.96047 2.771 12.4205 2.771C14.8705 2.771 16.8605 4.761 16.8605 7.211C16.8505 9.611 14.9605 11.561 12.5805 11.641Z" stroke="#2B2B2B" stroke-width="1.36874"/>
<path d="M7.58063 15.331C5.16062 16.951 5.16062 19.591 7.58063 21.201C10.3306 23.041 14.8406 23.041 17.5906 21.201C20.0106 19.581 20.0106 16.941 17.5906 15.331C14.8506 13.501 10.3406 13.501 7.58063 15.331Z" stroke="#2B2B2B" stroke-width="1.36874"/>
</svg>
