<svg width="25" height="23" viewBox="0 0 25 23" fill="none" xmlns="http://www.w3.org/2000/svg">
<path d="M19.8099 15.1712H19.8116C20.4813 15.1821 21.1342 14.9609 21.6593 14.545C22.1844 14.1292 22.5494 13.5444 22.6922 12.89L19.8099 15.1712ZM19.8099 15.1712H9.55997C9.55995 15.1712 9.55994 15.1712 9.55992 15.1712C8.89004 15.1709 8.24093 14.9386 7.72287 14.514C7.20479 14.0893 6.84971 13.4983 6.71797 12.8415L4.69798 2.75157L4.68189 2.6712H4.59992H1.41992C1.18123 2.6712 0.952308 2.57638 0.783526 2.4076C0.614743 2.23881 0.519922 2.00989 0.519922 1.7712C0.519922 1.5325 0.614743 1.30359 0.783526 1.1348C0.952308 0.966021 1.18123 0.8712 1.41992 0.8712H5.41992V0.87122L5.42194 0.871179C5.63249 0.866933 5.83786 0.936657 6.00231 1.06821C6.16669 1.19972 6.27977 1.38468 6.32189 1.59093C6.3219 1.59101 6.32192 1.59109 6.32194 1.59118L8.48183 12.4906L8.48194 12.4912C8.53336 12.7434 8.67161 12.9696 8.87259 13.1304C9.07331 13.2909 9.3239 13.3761 9.58087 13.3712H19.8088C20.0642 13.3766 20.3136 13.293 20.5141 13.1346C20.7148 12.976 20.854 12.7523 20.9077 12.5022L22.5177 5.00222C22.5526 4.83978 22.5503 4.67153 22.5109 4.5101C22.4715 4.34868 22.396 4.19828 22.2902 4.0702C22.1843 3.94212 22.0508 3.83968 21.8997 3.77058C21.749 3.70164 21.5846 3.66767 21.4188 3.6712H11.4199C11.1812 3.6712 10.9523 3.57638 10.7835 3.4076C10.6147 3.23881 10.5199 3.00989 10.5199 2.7712C10.5199 2.5325 10.6147 2.30359 10.7835 2.1348C10.9523 1.96602 11.1812 1.8712 11.4199 1.8712L21.4199 1.87123L21.4222 1.87117C21.8612 1.86104 22.2967 1.95072 22.696 2.13344C23.0952 2.31616 23.4478 2.58716 23.727 2.92599C24.0063 3.26482 24.205 3.66264 24.3081 4.08944C24.4112 4.51625 24.416 4.96089 24.3222 5.38984L24.3222 5.38996L22.6922 12.8899L19.8099 15.1712ZM10.4199 22.6712C9.84636 22.6712 9.28567 22.5011 8.80877 22.1825C8.33187 21.8638 7.96017 21.4109 7.74067 20.881C7.52118 20.3511 7.46375 19.768 7.57564 19.2054C7.68754 18.6429 7.96374 18.1262 8.36931 17.7206C8.77488 17.315 9.29162 17.0388 9.85416 16.9269C10.4167 16.815 10.9998 16.8725 11.5297 17.0919C12.0596 17.3114 12.5125 17.6831 12.8312 18.16C13.1498 18.6369 13.3199 19.1976 13.3199 19.7712C13.3199 20.5403 13.0144 21.278 12.4705 21.8218C11.9267 22.3657 11.189 22.6712 10.4199 22.6712ZM10.4199 18.6712C10.2024 18.6712 9.98969 18.7357 9.80879 18.8566C9.6279 18.9775 9.48691 19.1493 9.40365 19.3502C9.3204 19.5512 9.29861 19.7724 9.34106 19.9858C9.3835 20.1992 9.48827 20.3952 9.6421 20.549C9.79594 20.7029 9.99194 20.8076 10.2053 20.8501C10.4187 20.8925 10.6399 20.8707 10.8409 20.7875C11.0419 20.7042 11.2137 20.5632 11.3345 20.3823C11.4554 20.2014 11.5199 19.9888 11.5199 19.7712C11.5199 19.4795 11.404 19.1997 11.1977 18.9934C10.9914 18.7871 10.7117 18.6712 10.4199 18.6712ZM19.4199 22.6712C18.8464 22.6712 18.2857 22.5011 17.8088 22.1825C17.3319 21.8638 16.9602 21.4109 16.7407 20.881C16.5212 20.3511 16.4637 19.768 16.5756 19.2054C16.6875 18.6429 16.9637 18.1262 17.3693 17.7206C17.7749 17.315 18.2916 17.0388 18.8542 16.9269C19.4167 16.815 19.9998 16.8725 20.5297 17.0919C21.0596 17.3114 21.5125 17.6831 21.8312 18.16C22.1498 18.6369 22.3199 19.1976 22.3199 19.7712C22.3199 20.5403 22.0144 21.278 21.4705 21.8218C20.9267 22.3657 20.189 22.6712 19.4199 22.6712ZM19.4199 18.6712C19.2024 18.6712 18.9897 18.7357 18.8088 18.8566C18.6279 18.9775 18.4869 19.1493 18.4037 19.3502C18.3204 19.5512 18.2986 19.7724 18.3411 19.9858C18.3835 20.1992 18.4883 20.3952 18.6421 20.549C18.7959 20.7029 18.9919 20.8076 19.2053 20.8501C19.4187 20.8925 19.6399 20.8707 19.8409 20.7875C20.0419 20.7042 20.2137 20.5632 20.3345 20.3823C20.4554 20.2014 20.5199 19.9888 20.5199 19.7712C20.5199 19.4795 20.404 19.1997 20.1977 18.9934C19.9914 18.7871 19.7117 18.6712 19.4199 18.6712Z" fill="#2A2A2A" stroke="white" stroke-width="0.2"/>
</svg>
