<svg id="Layer_1" data-name="Layer 1" xmlns="http://www.w3.org/2000/svg" xmlns:xlink="http://www.w3.org/1999/xlink" viewBox="0 0 23 21"><defs><style>.cls-1{fill:#fff;}.cls-2{mask:url(#mask);}.cls-3{fill:#ed0a3f;stroke:#ed0a3f;stroke-width:1.5px;}.cls-3,.cls-4{stroke-linecap:round;stroke-linejoin:round;}.cls-4{fill:none;stroke:#fff;stroke-width:1.51px;}</style><mask id="mask" x="0.88" y="0.73" width="22.08" height="20.07" maskUnits="userSpaceOnUse"><g id="mask0_3846_1465" data-name="mask0 3846 1465"><path class="cls-1" d="M23,.73H.88V20.8H23Z"/></g></mask></defs><title>wishlist-fill</title><g class="cls-2"><path class="cls-3" d="M12.16,19.66a34.13,34.13,0,0,0,6-4.71A11.75,11.75,0,0,0,21,10.37C22.16,7,20.9,3.16,17.37,2a6,6,0,0,0-2.84-.21,6,6,0,0,0-2.61,1.12A6,6,0,0,0,6.48,2C3,3.16,1.68,7,2.76,10.37A12,12,0,0,0,5.63,15a34.85,34.85,0,0,0,6.05,4.71l.24.15Z"/><path class="cls-4" d="M8.17,5.81a2.77,2.77,0,0,0-1.33.93,2.82,2.82,0,0,0-.59,1.5"/></g></svg>